<svg width="29" height="28" viewBox="0 0 29 28" fill="none" xmlns="http://www.w3.org/2000/svg">
<path d="M4.75806 1.3125V4.71231C4.75806 4.95381 4.95406 5.14981 5.19556 5.14981H6.33831V20.5586C6.33831 24.1793 9.28399 27.1254 12.9052 27.1254C14.6561 27.1254 16.3054 26.4429 17.5506 25.2026C18.7226 24.0262 19.3885 22.4853 19.4581 20.8403C19.8995 20.7222 20.3265 20.5503 20.7299 20.3214C21.7326 19.7483 22.5346 18.8466 22.9896 17.7809C23.2682 17.1255 23.4091 16.4246 23.4091 15.6975C23.4091 15.4311 23.389 15.1594 23.3466 14.8566C23.2101 14.0293 22.8959 13.2685 22.4125 12.5943C21.6972 11.5999 20.6551 10.8815 19.4716 10.5608V5.15025H20.6144C20.8559 5.15025 21.0519 4.95425 21.0519 4.71275V1.3125C21.0519 1.071 20.8559 0.875 20.6144 0.875H5.19556C4.95406 0.875 4.75806 1.071 4.75806 1.3125ZM21.702 13.1044C22.1062 13.6679 22.3687 14.3054 22.4816 14.9883C22.5171 15.2399 22.5341 15.4718 22.5341 15.6975C22.5341 16.3065 22.4164 16.8919 22.1841 17.4379C21.8039 18.3286 21.1337 19.0829 20.2972 19.5611C19.8737 19.8013 19.4204 19.9701 18.9484 20.0638C18.4295 20.1674 17.8651 20.1762 17.355 20.083C15.2047 19.7295 13.6441 17.885 13.6441 15.6979C13.6441 13.6211 15.1185 11.7933 17.1555 11.3509C17.2207 11.3356 17.2863 11.3243 17.3559 11.3129C17.4823 11.2919 17.6096 11.277 17.7374 11.2669C17.7846 11.2634 17.8336 11.2634 17.8813 11.2613C17.9596 11.2578 18.0375 11.2538 18.1158 11.2543C18.2142 11.2547 18.3096 11.2613 18.4054 11.2678C18.4505 11.2709 18.496 11.2713 18.5406 11.2757C18.6776 11.2897 18.8132 11.3094 18.9488 11.3365C19.0293 11.3523 19.1094 11.3684 19.1872 11.3881C20.1987 11.6476 21.0921 12.2574 21.7011 13.1049L21.702 13.1044ZM16.8348 20.8701C16.6751 22.8983 14.9737 24.5 12.9052 24.5C10.7317 24.5 8.96331 22.7316 8.96331 20.5581V9.36338C9.54868 9.0265 10.1244 8.86769 10.6814 8.87688C11.1499 8.88781 11.4382 9.01688 11.7721 9.16694C12.1592 9.34062 12.5972 9.5375 13.2889 9.51125C13.8869 9.48894 14.2754 9.31262 14.5878 9.17131C14.8901 9.03394 15.1076 8.93506 15.4869 8.95913C15.9441 8.99063 16.4012 9.19581 16.8466 9.569V10.5236C16.7867 10.5381 16.7294 10.5578 16.6703 10.5744C16.6016 10.5936 16.5329 10.6116 16.4656 10.633C16.3881 10.6579 16.3124 10.6873 16.2363 10.7157C16.1707 10.7402 16.1046 10.7638 16.0407 10.7905C15.9659 10.822 15.8937 10.8574 15.8207 10.892C15.7586 10.9218 15.6956 10.9502 15.6347 10.9821C15.563 11.0198 15.4943 11.0613 15.4247 11.102C15.3661 11.1366 15.3062 11.1694 15.2493 11.2061C15.1811 11.2494 15.1159 11.2967 15.0502 11.3431C14.9951 11.382 14.9387 11.4196 14.8853 11.4603C14.821 11.5093 14.7602 11.5618 14.6985 11.6134C14.6469 11.6563 14.5944 11.6979 14.5449 11.7429C14.485 11.7968 14.429 11.8541 14.3717 11.9105C14.324 11.9578 14.275 12.0033 14.2291 12.0518C14.1739 12.1104 14.1223 12.1726 14.0698 12.2338C14.0265 12.2841 13.9814 12.3331 13.9399 12.3852C13.8896 12.4482 13.8432 12.5143 13.7959 12.5794C13.7566 12.6333 13.7159 12.6858 13.6787 12.7409C13.6336 12.8078 13.5929 12.8778 13.5509 12.9469C13.5164 13.0038 13.4801 13.0589 13.4477 13.1171C13.4079 13.1889 13.3724 13.2628 13.3357 13.3363C13.3064 13.3949 13.2749 13.4523 13.2473 13.5122C13.2123 13.5888 13.183 13.6675 13.1519 13.7454C13.1283 13.8049 13.1021 13.8631 13.0802 13.9234C13.0509 14.0048 13.0277 14.0879 13.0023 14.1711C12.9839 14.231 12.9634 14.2896 12.9472 14.35C12.9244 14.4366 12.9074 14.525 12.8886 14.6129C12.8759 14.672 12.8606 14.7298 12.8501 14.7893C12.833 14.8864 12.8225 14.9853 12.8111 15.0837C12.805 15.1358 12.7954 15.1865 12.791 15.2386C12.7779 15.3899 12.7709 15.5431 12.7709 15.6971C12.7709 15.8568 12.7783 16.0147 12.7919 16.1713C12.7962 16.2238 12.8059 16.275 12.8116 16.3275C12.8234 16.4303 12.8352 16.5331 12.8527 16.6342C12.8636 16.6963 12.8789 16.7563 12.8921 16.8175C12.9109 16.9067 12.9288 16.9964 12.9524 17.0839C12.9695 17.1487 12.9909 17.2113 13.0106 17.2751C13.0356 17.3565 13.0601 17.4383 13.0885 17.5184C13.1121 17.584 13.1397 17.6479 13.1659 17.7126C13.1961 17.7874 13.2263 17.8627 13.2596 17.9358C13.2897 18.0014 13.323 18.0648 13.3558 18.1291C13.3912 18.1983 13.4258 18.2674 13.4643 18.3343C13.5011 18.3991 13.5404 18.4616 13.5794 18.5246C13.6187 18.5876 13.6581 18.6502 13.6997 18.7114C13.743 18.7749 13.7885 18.8361 13.8344 18.8978C13.8773 18.9547 13.9202 19.0116 13.9648 19.0667C14.0147 19.1279 14.0667 19.1879 14.1197 19.2469C14.1652 19.2977 14.2111 19.348 14.2584 19.3974C14.3152 19.4561 14.373 19.5134 14.4325 19.5694C14.4802 19.6144 14.5287 19.6586 14.5782 19.7024C14.6412 19.7579 14.7055 19.8118 14.7716 19.8643C14.8214 19.9041 14.8722 19.9421 14.9234 19.9802C14.9929 20.0314 15.0629 20.0813 15.1347 20.1289C15.1867 20.1635 15.2397 20.1963 15.2926 20.2291C15.3674 20.2751 15.4427 20.3201 15.5201 20.3626C15.5744 20.3923 15.6299 20.4199 15.6855 20.4479C15.7647 20.4877 15.8443 20.5271 15.9257 20.5629C15.9839 20.5888 16.0438 20.6115 16.1033 20.6356C16.1847 20.6679 16.2661 20.7003 16.3501 20.7288C16.4152 20.7511 16.4817 20.7699 16.5478 20.7896C16.6283 20.8136 16.7084 20.8381 16.7906 20.8587C16.8055 20.8626 16.8199 20.8679 16.8352 20.8714L16.8348 20.8701ZM18.5971 10.4011C18.5752 10.3989 18.552 10.4011 18.5301 10.3989C18.3503 10.3841 18.1696 10.3793 17.9885 10.3828C17.936 10.3836 17.8848 10.3849 17.8327 10.3876C17.796 10.3893 17.7588 10.3884 17.7221 10.3911V9.37169C17.7221 9.24963 17.6709 9.13325 17.5812 9.05013C16.9411 8.4595 16.2564 8.13531 15.5451 8.08631C14.9452 8.04869 14.5646 8.2215 14.2269 8.37463C13.9351 8.50675 13.6826 8.62138 13.2561 8.63713C12.7643 8.65506 12.4874 8.52906 12.1308 8.36894C11.7633 8.204 11.3472 8.01719 10.6993 8.00231C9.90481 7.99488 9.08712 8.23988 8.29043 8.74956C8.16443 8.83006 8.08874 8.96875 8.08874 9.11794V20.5586C8.08874 23.2146 10.2496 25.3754 12.9056 25.3754C15.4107 25.3754 17.4731 23.4526 17.6997 21.0057C17.7352 21.0083 17.7724 21.0083 17.8078 21.0101C17.8555 21.0127 17.9023 21.0149 17.95 21.0162C17.9968 21.0175 18.0414 21.0219 18.0896 21.0219C18.2331 21.0219 18.3748 21.0127 18.5161 21.0013C18.5376 20.9996 18.559 21.0013 18.5804 20.9996C18.4772 22.3519 17.901 23.6114 16.9324 24.5836C15.8535 25.6581 14.4237 26.25 12.9056 26.25C9.76699 26.25 7.21374 23.6968 7.21374 20.5581V5.14981H18.5975L18.5971 10.4011ZM5.63306 1.75H20.1773V4.27481H19.0354H19.0346H6.77581H6.77493H5.63349V1.75H5.63306Z" fill="#3971B9"/>
<path d="M15.8175 15.1576C15.6464 14.9865 15.3699 14.9865 15.1989 15.1576C15.0278 15.3287 15.0278 15.6052 15.1989 15.7762L17.0762 17.6531C17.1615 17.7384 17.2735 17.7813 17.3855 17.7813C17.4975 17.7813 17.6095 17.7384 17.6948 17.6531L20.983 14.3648C21.1541 14.1938 21.1541 13.9173 20.983 13.7462C20.812 13.5752 20.5355 13.5752 20.3644 13.7462L17.3855 16.7252L15.8175 15.1576Z" fill="#3971B9"/>
</svg>
