<svg width="29" height="28" viewBox="0 0 29 28" fill="none" xmlns="http://www.w3.org/2000/svg">
<path d="M14.9588 20.125C13.7294 20.1271 12.5215 19.8024 11.4588 19.1844C10.1257 18.4133 9.08407 17.2241 8.49533 15.801C7.90658 14.378 7.80357 12.8005 8.20224 11.3129C8.60091 9.82535 9.47902 8.5108 10.7005 7.57289C11.922 6.63498 13.4187 6.12607 14.9588 6.125C16.8153 6.125 18.5958 6.8625 19.9085 8.17525C21.2213 9.48801 21.9588 11.2685 21.9588 13.125C21.9588 14.9815 21.2213 16.762 19.9085 18.0747C18.5958 19.3875 16.8153 20.125 14.9588 20.125ZM14.9588 7C13.7474 7 12.5632 7.35922 11.5559 8.03225C10.5487 8.70527 9.7636 9.66187 9.30002 10.7811C8.83643 11.9003 8.71513 13.1318 8.95147 14.3199C9.1878 15.5081 9.77115 16.5994 10.6277 17.456C11.4843 18.3126 12.5757 18.896 13.7639 19.1323C14.952 19.3686 16.1835 19.2473 17.3027 18.7838C18.4219 18.3202 19.3785 17.5351 20.0515 16.5279C20.7246 15.5206 21.0838 14.3364 21.0838 13.125C21.0891 11.7818 20.6474 10.4751 19.8282 9.41062C19.4961 8.97733 19.1077 8.59036 18.6732 8.26C17.6101 7.43772 16.3027 6.99424 14.9588 7Z" fill="#3971B9"/>
<path d="M8.3962 20.125C7.32273 20.1246 6.26375 19.8773 5.30112 19.4022C4.33849 18.9272 3.49802 18.2371 2.84469 17.3853C2.19136 16.5336 1.74267 15.543 1.53333 14.4901C1.32398 13.4373 1.35959 12.3504 1.63739 11.3135C1.91519 10.2766 2.42775 9.31746 3.13542 8.51029C3.8431 7.70312 4.72694 7.06952 5.71859 6.65849C6.71025 6.24745 7.78315 6.06999 8.85434 6.13983C9.92553 6.20967 10.9663 6.52494 11.8962 7.06125C11.9635 7.09941 12.0195 7.15474 12.0585 7.22161C12.0975 7.28848 12.118 7.36448 12.118 7.44188C12.118 7.51927 12.0975 7.59527 12.0585 7.66214C12.0195 7.72901 11.9635 7.78434 11.8962 7.8225C10.965 8.36004 10.1916 9.13327 9.65395 10.0644C9.11628 10.9956 8.83321 12.0519 8.83321 13.1272C8.83321 14.2024 9.11628 15.2588 9.65395 16.1899C10.1916 17.1211 10.965 17.8943 11.8962 18.4319C11.9615 18.4706 12.0156 18.5257 12.0531 18.5916C12.0907 18.6576 12.1104 18.7322 12.1104 18.8081C12.1104 18.884 12.0907 18.9586 12.0531 19.0246C12.0156 19.0906 11.9615 19.1456 11.8962 19.1844C10.8335 19.8024 9.6256 20.1271 8.3962 20.125ZM8.3962 7C7.48747 6.99998 6.59012 7.20217 5.76921 7.5919C4.9483 7.98163 4.22439 8.54915 3.64997 9.2533C3.07555 9.95745 2.66501 10.7806 2.44811 11.6631C2.23121 12.5455 2.21339 13.4652 2.39594 14.3554C2.57848 15.2456 2.95682 16.084 3.50353 16.8099C4.05024 17.5358 4.75162 18.1309 5.55681 18.5522C6.36201 18.9734 7.25085 19.2102 8.1589 19.2454C9.06694 19.2806 9.97144 19.1133 10.8068 18.7556C9.92573 18.1048 9.20966 17.2564 8.7162 16.2784C8.22274 15.3005 7.96568 14.2204 7.96568 13.125C7.96568 12.0296 8.22274 10.9495 8.7162 9.97159C9.20966 8.99365 9.92573 8.14517 10.8068 7.49438C10.0447 7.16901 9.22483 7.00086 8.3962 7Z" fill="#3971B9"/>
<path d="M20.1738 9.58127H20.1432C20.0816 9.57666 20.0218 9.55908 19.9675 9.52967C19.9132 9.50027 19.8657 9.4597 19.8282 9.41064C19.4962 8.97735 19.1078 8.59038 18.6732 8.26002C18.6231 8.22218 18.5817 8.17398 18.5518 8.11871C18.522 8.06344 18.5044 8.00239 18.5002 7.93971C18.4961 7.87703 18.5055 7.81419 18.5278 7.75547C18.5501 7.69675 18.5848 7.64351 18.6295 7.59939L20.2088 6.02002L18.6557 4.47127C18.5758 4.38743 18.5305 4.27648 18.5288 4.16064C18.5285 4.10306 18.5396 4.04599 18.5613 3.99268C18.5831 3.93938 18.6152 3.8909 18.6557 3.85002L19.8982 2.62502C19.9389 2.58401 19.9873 2.55146 20.0406 2.52925C20.0939 2.50704 20.1511 2.49561 20.2088 2.49561C20.2666 2.49561 20.3238 2.50704 20.3771 2.52925C20.4304 2.55146 20.4788 2.58401 20.5195 2.62502L22.0682 4.17814L23.6126 2.62502C23.6535 2.58447 23.702 2.55239 23.7553 2.53062C23.8086 2.50885 23.8656 2.49781 23.9232 2.49814C23.9808 2.49781 24.0379 2.50885 24.0912 2.53062C24.1445 2.55239 24.193 2.58447 24.2338 2.62502L25.4588 3.85002C25.4999 3.89069 25.5324 3.93908 25.5546 3.99239C25.5768 4.0457 25.5883 4.10289 25.5883 4.16064C25.5883 4.2184 25.5768 4.27558 25.5546 4.32889C25.5324 4.38221 25.4999 4.4306 25.4588 4.47127L23.9101 6.02002L25.4588 7.56439C25.4999 7.60506 25.5324 7.65345 25.5546 7.70676C25.5768 7.76008 25.5883 7.81726 25.5883 7.87502C25.5883 7.93277 25.5768 7.98996 25.5546 8.04327C25.5324 8.09658 25.4999 8.14497 25.4588 8.18564L24.2338 9.42377C24.193 9.46432 24.1445 9.4964 24.0912 9.51817C24.0379 9.53994 23.9808 9.55097 23.9232 9.55064C23.8656 9.55097 23.8086 9.53994 23.7553 9.51817C23.702 9.4964 23.6535 9.46432 23.6126 9.42377L22.0638 7.87502L20.4845 9.45877C20.4012 9.53906 20.2895 9.58311 20.1738 9.58127ZM22.0638 6.81627C22.1214 6.81593 22.1785 6.82697 22.2318 6.84874C22.2851 6.87051 22.3336 6.90259 22.3745 6.94314L23.9232 8.49189L24.5401 7.87502L22.9913 6.33064C22.9503 6.28997 22.9178 6.24158 22.8956 6.18827C22.8734 6.13496 22.8619 6.07777 22.8619 6.02002C22.8619 5.96226 22.8734 5.90508 22.8956 5.85176C22.9178 5.79845 22.9503 5.75006 22.9913 5.70939L24.5401 4.16064L23.9232 3.54814L22.3963 5.09689C22.3555 5.13744 22.307 5.16952 22.2537 5.19129C22.2004 5.21306 22.1433 5.2241 22.0857 5.22377C22.0281 5.2241 21.9711 5.21306 21.9178 5.19129C21.8645 5.16952 21.816 5.13744 21.7751 5.09689L20.2088 3.54377L19.592 4.16064L21.1407 5.70939C21.1817 5.75006 21.2143 5.79845 21.2365 5.85176C21.2587 5.90508 21.2701 5.96226 21.2701 6.02002C21.2701 6.07777 21.2587 6.13496 21.2365 6.18827C21.2143 6.24158 21.1817 6.28997 21.1407 6.33064L19.592 7.87502C19.8069 8.0681 20.0114 8.27256 20.2045 8.48752L21.7532 6.93877C21.8365 6.85847 21.9482 6.81443 22.0638 6.81627Z" fill="#3971B9"/>
<path d="M8.39624 22.75C8.28021 22.75 8.16893 22.7039 8.08688 22.6219C8.00483 22.5398 7.95874 22.4285 7.95874 22.3125V19.6875C7.95874 19.5715 8.00483 19.4602 8.08688 19.3781C8.16893 19.2961 8.28021 19.25 8.39624 19.25C8.51227 19.25 8.62355 19.2961 8.7056 19.3781C8.78765 19.4602 8.83374 19.5715 8.83374 19.6875V22.3125C8.83374 22.4285 8.78765 22.5398 8.7056 22.6219C8.62355 22.7039 8.51227 22.75 8.39624 22.75Z" fill="#3971B9"/>
<path d="M8.39629 25.2262C8.33841 25.226 8.28115 25.2143 8.22782 25.1918C8.1745 25.1692 8.12619 25.1363 8.08567 25.095L5.61379 22.6231C5.55236 22.5622 5.51037 22.4844 5.49314 22.3996C5.47591 22.3148 5.48421 22.2268 5.51699 22.1468C5.54977 22.0667 5.60555 21.9981 5.6773 21.9497C5.74904 21.9014 5.83352 21.8754 5.92004 21.875H10.8725C10.9591 21.8754 11.0435 21.9014 11.1153 21.9497C11.187 21.9981 11.2428 22.0667 11.2756 22.1468C11.3084 22.2268 11.3167 22.3148 11.2994 22.3996C11.2822 22.4844 11.2402 22.5622 11.1788 22.6231L8.70692 25.095C8.6664 25.1363 8.61808 25.1692 8.56476 25.1918C8.51144 25.2143 8.45418 25.226 8.39629 25.2262ZM6.97879 22.75L8.39629 24.1675L9.81379 22.75H6.97879Z" fill="#3971B9"/>
</svg>
