<svg width="29" height="28" viewBox="0 0 29 28" fill="none" xmlns="http://www.w3.org/2000/svg">
<path d="M1.78483 18.6839C1.44654 19.0209 1.20705 19.4441 1.09237 19.9077C0.977682 20.3712 0.992181 20.8573 1.13429 21.3131L2.82036 26.9131C2.90589 27.1856 3.06488 27.4292 3.27986 27.6173C3.49484 27.8053 3.75749 27.9304 4.03894 27.9789C4.3204 28.0273 4.60977 27.9973 4.87526 27.892C5.14075 27.7867 5.37208 27.6103 5.54383 27.3821L6.87429 25.6167C7.02632 25.3805 7.22633 25.179 7.46134 25.0252C7.69635 24.8714 7.96109 24.7688 8.23836 24.724H18.0169C18.6807 24.7051 19.3117 24.431 19.7786 23.9586L26.5499 17.0986C26.9169 16.7282 27.132 16.2338 27.1527 15.7127C27.1735 15.1916 26.9984 14.6817 26.6619 14.2832C26.3024 13.8578 25.7896 13.5915 25.2348 13.5422C24.6801 13.4929 24.1283 13.6647 23.6995 14.02L19.2022 17.7753C18.9984 17.4722 18.7226 17.2243 18.3994 17.0541C18.0762 16.8839 17.7158 16.7966 17.3505 16.8H11.8224C11.6923 16.8039 11.5649 16.7632 11.4612 16.6847C10.7109 16.0508 9.7619 15.7003 8.77969 15.6944C7.5039 15.6575 6.23474 15.891 5.05568 16.3798C3.87662 16.8685 2.81438 17.6012 1.93883 18.5299L1.78483 18.6839ZM2.44609 19.3419L2.59776 19.1907C3.38895 18.3514 4.34885 17.6891 5.41434 17.2474C6.47982 16.8057 7.62675 16.5945 8.77969 16.6278C9.54567 16.6349 10.2849 16.9105 10.8685 17.4066C11.1393 17.6222 11.4763 17.7376 11.8224 17.7333H17.3505C17.6599 17.7215 17.9614 17.8331 18.1885 18.0435C18.4157 18.2539 18.5499 18.546 18.5617 18.8554C18.5735 19.1648 18.462 19.4663 18.2515 19.6934C18.0411 19.9206 17.749 20.0548 17.4396 20.0666H11.4705C11.3467 20.0666 11.228 20.1158 11.1405 20.2033C11.053 20.2908 11.0038 20.4095 11.0038 20.5333C11.0038 20.6571 11.053 20.7758 11.1405 20.8633C11.228 20.9508 11.3467 21 11.4705 21H17.4396C17.7225 21.0002 18.0024 20.9423 18.262 20.8299C18.5216 20.7176 18.7554 20.5531 18.9488 20.3466C19.1468 20.1378 19.3005 19.891 19.4007 19.6213C19.5008 19.3515 19.5454 19.0642 19.5317 18.7768C19.5317 18.7572 19.5294 18.7376 19.5275 18.7175L24.2973 14.7368C24.5266 14.5458 24.8203 14.4498 25.1182 14.4687C25.416 14.4876 25.6953 14.62 25.8986 14.8385C26.1018 15.0571 26.2136 15.3452 26.2109 15.6437C26.2082 15.9421 26.0912 16.2282 25.884 16.443L19.1136 23.303C18.8193 23.6009 18.4223 23.7752 18.0038 23.7902H8.23696C7.19349 23.7902 6.41416 24.674 6.12763 25.0539L4.79716 26.8202C4.72882 26.9105 4.63708 26.9804 4.53187 27.0223C4.42665 27.0642 4.31198 27.0766 4.20027 27.058C4.08856 27.0394 3.98406 26.9905 3.89811 26.9168C3.81215 26.8431 3.74801 26.7472 3.71263 26.6396L2.02656 21.0396C1.93473 20.7453 1.92528 20.4315 1.99924 20.1322C2.0732 19.8329 2.22774 19.5596 2.44609 19.3419Z" fill="#3971B9"/>
<path d="M14.0922 0.39334C13.2177 1.26647 11.7505 3.04401 11.7505 5.13327C11.7505 7.22254 13.2177 9.00007 14.0922 9.87321C14.2227 10.0045 14.3787 10.1077 14.5505 10.1765V12.1333C14.5505 12.257 14.5997 12.3757 14.6872 12.4633C14.7747 12.5508 14.8934 12.5999 15.0172 12.5999C15.1409 12.5999 15.2596 12.5508 15.3471 12.4633C15.4347 12.3757 15.4838 12.257 15.4838 12.1333V10.1765C15.6557 10.1077 15.8116 10.0045 15.9421 9.87321C16.8166 9.00007 18.2838 7.22254 18.2838 5.13327C18.2838 3.04401 16.8166 1.26647 15.9421 0.39334C15.8227 0.268255 15.6792 0.168688 15.5202 0.100661C15.3612 0.032633 15.1901 -0.00244141 15.0172 -0.00244141C14.8442 -0.00244141 14.6731 0.032633 14.5141 0.100661C14.3551 0.168688 14.2116 0.268255 14.0922 0.39334ZM15.4838 9.00661V3.26661C15.4838 3.14284 15.4347 3.02414 15.3471 2.93662C15.2596 2.84911 15.1409 2.79994 15.0172 2.79994C14.8934 2.79994 14.7747 2.84911 14.6872 2.93662C14.5997 3.02414 14.5505 3.14284 14.5505 3.26661V9.00661C13.774 8.18387 12.6838 6.74281 12.6838 5.13327C12.6838 3.38047 13.9793 1.82461 14.7521 1.05321C14.7852 1.01551 14.826 0.985311 14.8717 0.964622C14.9174 0.943933 14.967 0.933232 15.0172 0.933232C15.0673 0.933232 15.1169 0.943933 15.1626 0.964622C15.2083 0.985311 15.2491 1.01551 15.2822 1.05321C16.055 1.82461 17.3505 3.38047 17.3505 5.13327C17.3505 6.74141 16.2604 8.18247 15.4838 9.00661Z" fill="#3971B9"/>
<path d="M11.5833 9.88451C11.4121 8.66045 10.8759 6.41951 9.20566 5.16231C7.53546 3.90511 5.2348 4.00685 4.01073 4.18231C3.83904 4.20268 3.67325 4.25759 3.52334 4.34374C3.37344 4.42988 3.24252 4.54549 3.13848 4.68358C3.03445 4.82167 2.95944 4.97939 2.91799 5.14724C2.87653 5.31509 2.86948 5.4896 2.89726 5.66025C3.069 6.88431 3.60613 9.12525 5.27726 10.3824C6.38443 11.1373 7.70477 11.5165 9.04373 11.4642C9.52167 11.4634 9.99897 11.4294 10.4722 11.3624C10.6559 11.3362 10.8324 11.2727 10.9907 11.1758L12.6305 12.4955C12.6782 12.5343 12.7331 12.5633 12.7921 12.5809C12.851 12.5984 12.9128 12.6041 12.974 12.5977C13.0352 12.5912 13.0945 12.5728 13.1485 12.5433C13.2025 12.5139 13.2501 12.4741 13.2887 12.4262C13.3272 12.3783 13.3559 12.3232 13.3731 12.2642C13.3904 12.2051 13.3957 12.1433 13.3889 12.0822C13.3822 12.021 13.3634 11.9618 13.3336 11.908C13.3039 11.8542 13.2638 11.8067 13.2157 11.7684L11.5502 10.43C11.5978 10.2523 11.6091 10.0667 11.5833 9.88451ZM6.08366 6.02985C5.98725 5.95206 5.86388 5.91576 5.7407 5.92893C5.61752 5.9421 5.50462 6.00367 5.42683 6.10008C5.34904 6.1965 5.31274 6.31986 5.32591 6.44304C5.33908 6.56622 5.40065 6.67913 5.49706 6.75691L10.1063 10.4678C8.98633 10.599 7.1402 10.619 5.83446 9.63485C4.43446 8.58065 3.97153 6.60991 3.81986 5.52818C3.8094 5.47894 3.8096 5.42803 3.82047 5.37888C3.83134 5.32973 3.85261 5.28347 3.88285 5.24323C3.9131 5.20299 3.95162 5.1697 3.99581 5.1456C4.04001 5.1215 4.08885 5.10715 4.13906 5.10351C4.57193 5.04221 5.00854 5.01102 5.44573 5.01018C6.57937 4.96129 7.699 5.2757 8.64146 5.90758C9.9052 6.85911 10.4027 8.54985 10.6015 9.66705L6.08366 6.02985Z" fill="#3971B9"/>
<path d="M17.4194 12.5315C17.4643 12.5733 17.517 12.6058 17.5744 12.6273C17.6319 12.6487 17.693 12.6586 17.7543 12.6564C17.8156 12.6542 17.8758 12.6399 17.9316 12.6144C17.9874 12.5889 18.0376 12.5526 18.0793 12.5077L19.5563 10.921C19.696 10.9825 19.847 11.0143 19.9996 11.0144C20.0234 11.0144 20.0463 11.0144 20.071 11.012C20.9946 10.9579 22.7002 10.6914 23.7474 9.51312C24.7946 8.33478 24.8581 6.60952 24.803 5.68645C24.7971 5.54363 24.7624 5.40348 24.7011 5.27434C24.6398 5.1452 24.5532 5.02973 24.4463 4.93479C24.3394 4.83986 24.2146 4.76741 24.0791 4.72177C23.9436 4.67612 23.8004 4.65822 23.6578 4.66912C22.7338 4.72278 21.0282 4.98925 19.9819 6.16805C18.9356 7.34685 18.8703 9.07118 18.9254 9.99472C18.9299 10.0622 18.94 10.1291 18.9557 10.1949L17.397 11.8712C17.3551 11.916 17.3224 11.9686 17.3008 12.0261C17.2792 12.0835 17.2692 12.1447 17.2713 12.206C17.2733 12.2673 17.2875 12.3277 17.3129 12.3835C17.3384 12.4394 17.3746 12.4897 17.4194 12.5315ZM20.6791 6.78778C21.5037 5.86098 22.9326 5.64678 23.7129 5.60012H23.7264C23.7455 5.59842 23.7647 5.60083 23.7827 5.60719C23.8007 5.61356 23.8172 5.62372 23.831 5.637C23.8447 5.65027 23.8555 5.66635 23.8625 5.68414C23.8695 5.70193 23.8726 5.72102 23.8716 5.74012C23.9182 6.51945 23.8716 7.96518 23.0493 8.89198C22.3372 9.69325 21.1724 9.96158 20.3655 10.0489L22.7086 7.53118C22.7504 7.48632 22.783 7.43367 22.8044 7.37623C22.8259 7.31879 22.8358 7.25769 22.8336 7.19642C22.8315 7.13514 22.8173 7.07489 22.7918 7.01911C22.7664 6.96333 22.7302 6.91311 22.6853 6.87132C22.6405 6.82952 22.5878 6.79697 22.5304 6.77552C22.4729 6.75408 22.4118 6.74415 22.3505 6.74632C22.2893 6.74849 22.229 6.7627 22.1732 6.78815C22.1175 6.8136 22.0672 6.84979 22.0254 6.89465L19.8512 9.23125C19.8461 8.34709 20.1376 7.48675 20.6791 6.78778Z" fill="#3971B9"/>
</svg>
