<svg width="29" height="28" viewBox="0 0 29 28" fill="none" xmlns="http://www.w3.org/2000/svg">
<path d="M23.9319 22.9591L5.95086 4.97851C5.77998 4.80762 5.50313 4.80762 5.33224 4.97851C5.16135 5.14939 5.16135 5.42625 5.33224 5.59713L8.77843 9.04323L6.56021 9.36016C5.47521 9.51766 4.59146 10.2702 4.25021 11.3114C3.90896 12.3527 4.18896 13.4814 4.97646 14.2427L6.61271 15.8439C7.08521 16.2989 7.29521 16.9552 7.18146 17.6027L6.79646 19.8602C6.61271 20.9452 7.05021 22.0127 7.93396 22.6602C8.44146 23.0277 9.02771 23.2113 9.61396 23.2113C10.069 23.2113 10.5327 23.0977 10.9527 22.8789L12.9827 21.8114C13.5602 21.5052 14.2515 21.5052 14.829 21.8114L16.8589 22.8789C17.8214 23.3864 18.9852 23.3077 19.8689 22.6602C20.3872 22.2876 20.751 21.7713 20.9278 21.1924L23.3132 23.5778C23.3987 23.6633 23.5106 23.706 23.6225 23.706C23.7344 23.706 23.8465 23.6633 23.9319 23.5778C24.1028 23.4069 24.1028 23.13 23.9319 22.9591ZM19.3527 21.9514C18.7315 22.4064 17.944 22.4589 17.2615 22.1002L15.2315 21.0414C14.4002 20.6039 13.4027 20.6039 12.5715 21.0414L10.5415 22.1002C9.85896 22.4677 9.08021 22.4064 8.45021 21.9514C7.82896 21.4964 7.53146 20.7702 7.66271 20.0089L8.04771 17.7514C8.20521 16.8239 7.89896 15.8789 7.22521 15.2227L5.58896 13.6214C5.02896 13.0789 4.84521 12.3177 5.08146 11.5827C5.31771 10.8477 5.92146 10.3402 6.69146 10.2264L8.94896 9.90266C9.13508 9.87326 9.30946 9.81052 9.48359 9.74839L20.1636 20.4281C20.1427 21.0297 19.8649 21.5815 19.3527 21.9514Z" fill="#3971B9"/>
<path d="M11.1102 8.33645L12.1252 6.2802C12.4665 5.58895 13.1315 5.16895 13.9015 5.16895C14.6802 5.16895 15.3452 5.58895 15.6865 6.2802L16.7015 8.33645C17.1127 9.17645 17.9265 9.7627 18.854 9.9027L21.1202 10.2264C21.8901 10.3402 22.4852 10.8477 22.7302 11.5827C22.9665 12.3177 22.774 13.0789 22.2227 13.6214L20.5865 15.2227C19.9652 15.8177 19.659 16.6577 19.7202 17.5064V17.5152L20.7877 18.5739L20.6215 17.6027C20.5077 16.9552 20.7265 16.2989 21.1902 15.8439L22.8352 14.2427C23.6227 13.4814 23.894 12.3527 23.5615 11.3114C23.2202 10.2702 22.3365 9.5177 21.2515 9.3602L18.9852 9.03645C18.329 8.9402 17.7777 8.5377 17.489 7.9427L16.474 5.8952C15.984 4.90645 15.004 4.29395 13.9016 4.29395C12.8078 4.29395 11.8191 4.90645 11.3377 5.8952L10.3227 7.9427C10.3052 7.9777 10.2877 8.02145 10.2615 8.05645L10.9002 8.6952C10.979 8.58145 11.049 8.45895 11.1102 8.33645Z" fill="#3971B9"/>
</svg>
