<svg width="29" height="28" viewBox="0 0 29 28" fill="none" xmlns="http://www.w3.org/2000/svg">
<path d="M18.2425 13.1823L17.4725 13.6202C16.9791 13.8618 16.437 13.9874 15.8876 13.9875C15.3381 13.9877 14.796 13.8624 14.3024 13.6211C13.6823 13.2847 12.986 13.1139 12.2807 13.125C11.5764 13.1138 10.8811 13.2842 10.2618 13.6198L9.49254 14.0573C9.44121 14.0849 9.39592 14.1226 9.35933 14.168C9.32274 14.2133 9.29559 14.2656 9.27948 14.3216C9.26337 14.3777 9.25863 14.4363 9.26552 14.4942C9.27241 14.5521 9.2908 14.6081 9.31962 14.6587C9.34843 14.7094 9.38709 14.7538 9.43331 14.7894C9.47953 14.8249 9.53239 14.8508 9.58878 14.8657C9.64516 14.8805 9.70394 14.8839 9.76166 14.8756C9.81938 14.8674 9.87487 14.8477 9.92488 14.8178L10.6965 14.379C11.1898 14.1378 11.7317 14.0124 12.2808 14.0124C12.83 14.0124 13.3719 14.1378 13.8652 14.379C14.4887 14.7046 15.1818 14.8748 15.8852 14.875C16.5887 14.8753 17.2818 14.7055 17.9056 14.3803L18.6749 13.9428C18.7729 13.884 18.844 13.7892 18.8731 13.6787C18.9021 13.5682 18.8868 13.4506 18.8303 13.3513C18.7738 13.2519 18.6807 13.1786 18.5708 13.147C18.461 13.1155 18.3432 13.1281 18.2425 13.1823Z" fill="#3971B9"/>
<path d="M18.2425 10.9948L17.4725 11.4327C16.9791 11.6743 16.437 11.7999 15.8876 11.8C15.3381 11.8002 14.796 11.6749 14.3024 11.4336C13.6823 11.0972 12.986 10.9264 12.2807 10.9375C11.5764 10.9263 10.8811 11.0967 10.2618 11.4323L9.49254 11.8698C9.44121 11.8974 9.39592 11.9351 9.35933 11.9805C9.32274 12.0258 9.29559 12.0781 9.27948 12.1341C9.26337 12.1902 9.25863 12.2488 9.26552 12.3067C9.27241 12.3646 9.2908 12.4206 9.31962 12.4712C9.34843 12.5219 9.38709 12.5663 9.43331 12.6019C9.47953 12.6374 9.53239 12.6633 9.58878 12.6782C9.64516 12.693 9.70394 12.6964 9.76166 12.6881C9.81938 12.6799 9.87487 12.6602 9.92488 12.6303L10.6965 12.1915C11.1898 11.9503 11.7317 11.8249 12.2808 11.8249C12.83 11.8249 13.3719 11.9503 13.8652 12.1915C14.4887 12.5171 15.1818 12.6873 15.8852 12.6875C16.5887 12.6878 17.2818 12.518 17.9056 12.1928L18.6749 11.7553C18.7729 11.6965 18.844 11.6017 18.8731 11.4912C18.9021 11.3807 18.8868 11.2631 18.8303 11.1638C18.7738 11.0644 18.6807 10.9911 18.5708 10.9595C18.461 10.928 18.3432 10.9406 18.2425 10.9948Z" fill="#3971B9"/>
<path d="M18.2425 15.3698L17.4725 15.8077C16.9791 16.0493 16.437 16.1749 15.8876 16.175C15.3381 16.1752 14.796 16.0499 14.3024 15.8086C13.6823 15.4722 12.986 15.3014 12.2807 15.3125C11.5764 15.3013 10.8811 15.4717 10.2618 15.8073L9.49254 16.2448C9.44121 16.2724 9.39592 16.3101 9.35933 16.3555C9.32274 16.4008 9.29559 16.4531 9.27948 16.5091C9.26337 16.5652 9.25863 16.6238 9.26552 16.6817C9.27241 16.7396 9.2908 16.7956 9.31962 16.8462C9.34843 16.8969 9.38709 16.9413 9.43331 16.9769C9.47953 17.0124 9.53239 17.0383 9.58878 17.0532C9.64516 17.068 9.70394 17.0714 9.76166 17.0631C9.81938 17.0549 9.87487 17.0352 9.92488 17.0053L10.6965 16.5665C11.1898 16.3253 11.7317 16.1999 12.2808 16.1999C12.83 16.1999 13.3719 16.3253 13.8652 16.5665C14.4887 16.8921 15.1818 17.0623 15.8852 17.0625C16.5887 17.0628 17.2818 16.893 17.9056 16.5678L18.6749 16.1303C18.7729 16.0715 18.844 15.9767 18.8731 15.8662C18.9021 15.7557 18.8868 15.6381 18.8303 15.5388C18.7738 15.4394 18.6807 15.3661 18.5708 15.3345C18.461 15.303 18.3432 15.3156 18.2425 15.3698Z" fill="#3971B9"/>
<path d="M14.0837 1.3125C11.5744 1.3125 9.1214 2.05661 7.03495 3.45073C4.9485 4.84485 3.32231 6.82637 2.36202 9.1447C1.40174 11.463 1.15048 14.0141 1.64003 16.4752C2.12958 18.9363 3.33795 21.197 5.11233 22.9714C6.88671 24.7458 9.1474 25.9542 11.6085 26.4437C14.0697 26.9333 16.6207 26.682 18.939 25.7217C21.2574 24.7614 23.2389 23.1352 24.633 21.0488C26.0271 18.9623 26.7712 16.5094 26.7712 14C26.7674 10.6362 25.4295 7.41135 23.0509 5.03282C20.6724 2.65428 17.4475 1.31633 14.0837 1.3125ZM14.0837 25.8125C11.7475 25.8125 9.46363 25.1197 7.52107 23.8217C5.57852 22.5238 4.06448 20.6789 3.17042 18.5204C2.27636 16.362 2.04243 13.9869 2.49822 11.6955C2.95401 9.40409 4.07904 7.29931 5.73105 5.6473C7.38306 3.99529 9.48784 2.87026 11.7792 2.41447C14.0706 1.95869 16.4457 2.19261 18.6042 3.08667C20.7626 3.98073 22.6075 5.49477 23.9055 7.43733C25.2035 9.37988 25.8962 11.6637 25.8962 14C25.8927 17.1318 24.647 20.1343 22.4325 22.3488C20.218 24.5633 17.2155 25.8089 14.0837 25.8125Z" fill="#3971B9"/>
<path d="M14.0837 4.8125C12.2666 4.8125 10.4903 5.35134 8.97944 6.36087C7.46857 7.37041 6.29098 8.8053 5.5956 10.4841C4.90022 12.1629 4.71828 14.0102 5.07278 15.7924C5.42728 17.5746 6.30231 19.2116 7.5872 20.4965C8.8721 21.7814 10.5092 22.6565 12.2914 23.011C14.0736 23.3655 15.9209 23.1835 17.5996 22.4881C19.2784 21.7928 20.7133 20.6152 21.7229 19.1043C22.7324 17.5934 23.2712 15.8171 23.2712 14C23.2685 11.5642 22.2996 9.2289 20.5772 7.50651C18.8548 5.78412 16.5196 4.81527 14.0837 4.8125ZM14.0837 22.3125C12.4397 22.3125 10.8326 21.825 9.46557 20.9116C8.09858 19.9982 7.03315 18.7 6.404 17.1811C5.77484 15.6621 5.61023 13.9908 5.93097 12.3783C6.25171 10.7658 7.0434 9.2847 8.20592 8.12218C9.36844 6.95965 10.8496 6.16796 12.4621 5.84722C14.0745 5.52648 15.7459 5.6911 17.2648 6.32025C18.7837 6.9494 20.0819 8.01484 20.9953 9.38182C21.9087 10.7488 22.3962 12.3559 22.3962 14C22.3937 16.2038 21.5172 18.3167 19.9588 19.8751C18.4005 21.4334 16.2876 22.31 14.0837 22.3125Z" fill="#3971B9"/>
<path d="M14.0837 3.9375C14.3254 3.9375 14.5212 3.74162 14.5212 3.5C14.5212 3.25838 14.3254 3.0625 14.0837 3.0625C13.8421 3.0625 13.6462 3.25838 13.6462 3.5C13.6462 3.74162 13.8421 3.9375 14.0837 3.9375Z" fill="#3971B9"/>
<path d="M14.0837 24.9375C14.3254 24.9375 14.5212 24.7416 14.5212 24.5C14.5212 24.2584 14.3254 24.0625 14.0837 24.0625C13.8421 24.0625 13.6462 24.2584 13.6462 24.5C13.6462 24.7416 13.8421 24.9375 14.0837 24.9375Z" fill="#3971B9"/>
<path d="M12.3364 4.09028C12.4217 4.07526 12.5005 4.0353 12.563 3.97547C12.6255 3.91563 12.6689 3.8386 12.6876 3.75412C12.7064 3.66964 12.6996 3.58151 12.6683 3.50086C12.6369 3.42021 12.5823 3.35067 12.5114 3.30104C12.4406 3.25141 12.3565 3.22391 12.27 3.22203C12.1835 3.22014 12.0984 3.24395 12.0254 3.29045C11.9524 3.33695 11.8949 3.40404 11.86 3.48324C11.8252 3.56245 11.8146 3.65021 11.8297 3.73542C11.8498 3.84968 11.9145 3.95126 12.0096 4.01781C12.1046 4.08435 12.2222 4.11042 12.3364 4.09028Z" fill="#3971B9"/>
<path d="M15.831 23.9097C15.7458 23.9247 15.667 23.9647 15.6045 24.0245C15.5419 24.0844 15.4986 24.1614 15.4799 24.2459C15.4611 24.3304 15.4679 24.4185 15.4992 24.4991C15.5306 24.5798 15.5852 24.6493 15.656 24.699C15.7269 24.7486 15.8109 24.7761 15.8974 24.778C15.984 24.7799 16.0691 24.756 16.1421 24.7096C16.215 24.6631 16.2726 24.596 16.3074 24.5168C16.3423 24.4376 16.3529 24.3498 16.3378 24.2646C16.3177 24.1503 16.253 24.0487 16.1579 23.9822C16.0629 23.9156 15.9453 23.8896 15.831 23.9097Z" fill="#3971B9"/>
<path d="M10.6423 4.54443C10.7236 4.51485 10.7943 4.46181 10.8455 4.39203C10.8966 4.32226 10.926 4.23887 10.9298 4.15242C10.9335 4.06597 10.9116 3.98034 10.8667 3.90636C10.8218 3.83238 10.756 3.77337 10.6776 3.7368C10.5992 3.70023 10.5117 3.68773 10.4261 3.70089C10.3406 3.71405 10.2609 3.75228 10.1971 3.81074C10.1333 3.8692 10.0883 3.94526 10.0677 4.02931C10.0471 4.11336 10.052 4.20163 10.0816 4.28294C10.1212 4.39197 10.2026 4.48076 10.3078 4.5298C10.4129 4.57884 10.5332 4.5841 10.6423 4.54443Z" fill="#3971B9"/>
<path d="M17.5254 23.4556C17.4441 23.4852 17.3734 23.5382 17.3222 23.608C17.2711 23.6778 17.2417 23.7612 17.238 23.8476C17.2342 23.9341 17.2561 24.0197 17.301 24.0937C17.3459 24.1676 17.4117 24.2266 17.4901 24.2632C17.5686 24.2998 17.6561 24.3123 17.7416 24.2991C17.8271 24.2859 17.9068 24.2477 17.9706 24.1893C18.0344 24.1308 18.0794 24.0547 18.1 23.9707C18.1206 23.8866 18.1158 23.7984 18.0862 23.7171C18.0665 23.6631 18.0364 23.6135 17.9976 23.5711C17.9588 23.5288 17.912 23.4945 17.86 23.4702C17.8079 23.4459 17.7515 23.4321 17.6941 23.4296C17.6367 23.4271 17.5794 23.4359 17.5254 23.4556Z" fill="#3971B9"/>
<path d="M9.05249 5.28563C9.12742 5.24236 9.18785 5.17785 9.22612 5.10024C9.26439 5.02263 9.27879 4.93542 9.2675 4.84963C9.2562 4.76384 9.21972 4.68333 9.16267 4.61827C9.10561 4.55322 9.03055 4.50654 8.94697 4.48414C8.86339 4.46175 8.77504 4.46464 8.6931 4.49246C8.61117 4.52027 8.53932 4.57176 8.48664 4.64041C8.43397 4.70906 8.40283 4.79179 8.39718 4.87814C8.39152 4.96448 8.41159 5.05057 8.45486 5.1255C8.51288 5.22598 8.60844 5.2993 8.72051 5.32933C8.83259 5.35936 8.952 5.34364 9.05249 5.28563Z" fill="#3971B9"/>
<path d="M19.115 22.7144C19.0401 22.7576 18.9796 22.8222 18.9414 22.8998C18.9031 22.9774 18.8887 23.0646 18.9 23.1504C18.9113 23.2362 18.9478 23.3167 19.0048 23.3817C19.0619 23.4468 19.1369 23.4935 19.2205 23.5159C19.3041 23.5383 19.3924 23.5354 19.4744 23.5075C19.5563 23.4797 19.6282 23.4282 19.6808 23.3596C19.7335 23.2909 19.7646 23.2082 19.7703 23.1219C19.776 23.0355 19.7559 22.9494 19.7126 22.8745C19.6546 22.774 19.559 22.7007 19.447 22.6707C19.3349 22.6406 19.2155 22.6564 19.115 22.7144Z" fill="#3971B9"/>
<path d="M7.61568 6.2917C7.68196 6.23609 7.73027 6.16206 7.75449 6.07899C7.77871 5.99592 7.77775 5.90753 7.75173 5.825C7.72571 5.74248 7.67581 5.66952 7.60833 5.61535C7.54085 5.56119 7.45882 5.52825 7.37262 5.52071C7.28642 5.51316 7.19992 5.53135 7.12405 5.57297C7.04819 5.61459 6.98637 5.67777 6.94641 5.75452C6.90645 5.83127 6.89015 5.91815 6.89957 6.00416C6.90899 6.09018 6.94371 6.17147 6.99933 6.23776C7.07391 6.32664 7.18074 6.38226 7.29633 6.39238C7.41192 6.40249 7.52679 6.36628 7.61568 6.2917Z" fill="#3971B9"/>
<path d="M20.5518 21.7083C20.4855 21.7639 20.4372 21.838 20.413 21.921C20.3888 22.0041 20.3897 22.0925 20.4158 22.175C20.4418 22.2576 20.4917 22.3305 20.5592 22.3847C20.6267 22.4388 20.7087 22.4718 20.7949 22.4793C20.8811 22.4868 20.9676 22.4686 21.0435 22.427C21.1193 22.3854 21.1811 22.3222 21.2211 22.2455C21.261 22.1687 21.2773 22.0818 21.2679 21.9958C21.2585 21.9098 21.2238 21.8285 21.1681 21.7622C21.0935 21.6733 20.9867 21.6177 20.8711 21.6076C20.7555 21.5975 20.6407 21.6337 20.5518 21.7083Z" fill="#3971B9"/>
<path d="M6.37541 7.53197C6.43103 7.46569 6.46575 7.3844 6.47518 7.29839C6.48461 7.21237 6.46831 7.12549 6.42836 7.04874C6.38841 6.97198 6.32659 6.9088 6.25073 6.86717C6.17487 6.82555 6.08837 6.80736 6.00217 6.8149C5.91597 6.82243 5.83394 6.85537 5.76645 6.90952C5.69897 6.96368 5.64906 7.03664 5.62304 7.11916C5.59701 7.20169 5.59605 7.29008 5.62026 7.37315C5.64447 7.45622 5.69277 7.53025 5.75906 7.58587C5.84794 7.66046 5.96281 7.69668 6.0784 7.68657C6.19398 7.67646 6.30082 7.62085 6.37541 7.53197Z" fill="#3971B9"/>
<path d="M21.792 20.4681C21.7364 20.5343 21.7017 20.6156 21.6923 20.7016C21.6829 20.7877 21.6992 20.8745 21.7391 20.9513C21.7791 21.028 21.8409 21.0912 21.9168 21.1328C21.9926 21.1745 22.0791 21.1926 22.1653 21.1851C22.2515 21.1776 22.3336 21.1446 22.4011 21.0905C22.4685 21.0363 22.5184 20.9633 22.5445 20.8808C22.5705 20.7983 22.5714 20.7099 22.5472 20.6268C22.523 20.5438 22.4747 20.4697 22.4084 20.4141C22.3195 20.3395 22.2046 20.3033 22.0891 20.3134C21.9735 20.3236 21.8666 20.3792 21.792 20.4681Z" fill="#3971B9"/>
<path d="M4.77172 9.12888C4.84665 9.17215 4.93274 9.19222 5.01908 9.18656C5.10543 9.18091 5.18815 9.14977 5.2568 9.0971C5.32545 9.04442 5.37694 8.97258 5.40476 8.89064C5.43257 8.8087 5.43547 8.72035 5.41307 8.63677C5.39068 8.55319 5.344 8.47813 5.27895 8.42107C5.21389 8.36402 5.13338 8.32754 5.04759 8.31624C4.9618 8.30495 4.87458 8.31935 4.79698 8.35762C4.71937 8.39589 4.65486 8.45632 4.61159 8.53125C4.55358 8.63174 4.53786 8.75115 4.56789 8.86323C4.59791 8.9753 4.67123 9.07086 4.77172 9.12888Z" fill="#3971B9"/>
<path d="M23.2954 19.6698C23.5288 19.6073 23.6673 19.3673 23.6047 19.134C23.5421 18.9006 23.3022 18.7621 23.0688 18.8247C22.8354 18.8873 22.697 19.1272 22.7595 19.3606C22.8221 19.5939 23.062 19.7324 23.2954 19.6698Z" fill="#3971B9"/>
<path d="M4.2168 10.8464C4.45842 10.8464 4.6543 10.6506 4.6543 10.4089C4.6543 10.1673 4.45842 9.97144 4.2168 9.97144C3.97517 9.97144 3.7793 10.1673 3.7793 10.4089C3.7793 10.6506 3.97517 10.8464 4.2168 10.8464Z" fill="#3971B9"/>
<path d="M24.1001 17.1802C24.0188 17.1506 23.9305 17.1458 23.8465 17.1663C23.7624 17.1869 23.6864 17.2319 23.6279 17.2957C23.5694 17.3595 23.5312 17.4392 23.518 17.5247C23.5049 17.6103 23.5174 17.6978 23.5539 17.7762C23.5905 17.8546 23.6495 17.9204 23.7235 17.9653C23.7974 18.0102 23.8831 18.0322 23.9695 18.0284C24.056 18.0246 24.1393 17.9953 24.2091 17.9441C24.2789 17.893 24.332 17.8223 24.3616 17.7409C24.4012 17.6319 24.396 17.5116 24.347 17.4064C24.2979 17.3013 24.2091 17.2199 24.1001 17.1802Z" fill="#3971B9"/>
<path d="M3.66737 12.6076C3.75259 12.6226 3.84035 12.6121 3.91956 12.5772C3.99876 12.5424 4.06586 12.4848 4.11236 12.4119C4.15887 12.3389 4.18268 12.2538 4.18081 12.1673C4.17893 12.0808 4.15144 11.9967 4.10182 11.9259C4.05219 11.855 3.98266 11.8004 3.90202 11.769C3.82137 11.7377 3.73324 11.7309 3.64876 11.7496C3.56427 11.7683 3.48724 11.8117 3.4274 11.8742C3.36756 11.9367 3.32759 12.0155 3.31256 12.1008C3.29241 12.215 3.31846 12.3326 3.385 12.4277C3.45154 12.5227 3.55311 12.5874 3.66737 12.6076Z" fill="#3971B9"/>
<path d="M24.5003 15.3924C24.4151 15.3774 24.3273 15.3879 24.2481 15.4228C24.1689 15.4577 24.1018 15.5152 24.0553 15.5882C24.0088 15.6612 23.985 15.7463 23.9869 15.8328C23.9888 15.9193 24.0163 16.0033 24.0659 16.0742C24.1156 16.1451 24.1851 16.1996 24.2657 16.231C24.3464 16.2624 24.4345 16.2691 24.519 16.2504C24.6035 16.2316 24.6805 16.1883 24.7403 16.1258C24.8002 16.0633 24.8401 15.9844 24.8552 15.8992C24.8651 15.8426 24.8639 15.7847 24.8514 15.7286C24.839 15.6725 24.8157 15.6194 24.7827 15.5723C24.7497 15.5252 24.7078 15.4851 24.6594 15.4543C24.6109 15.4234 24.5569 15.4024 24.5003 15.3924Z" fill="#3971B9"/>
<path d="M3.58374 14.4375C3.82536 14.4375 4.02124 14.2416 4.02124 14C4.02124 13.7584 3.82536 13.5625 3.58374 13.5625C3.34212 13.5625 3.14624 13.7584 3.14624 14C3.14624 14.2416 3.34212 14.4375 3.58374 14.4375Z" fill="#3971B9"/>
<path d="M24.5837 14.4375C24.8254 14.4375 25.0212 14.2416 25.0212 14C25.0212 13.7584 24.8254 13.5625 24.5837 13.5625C24.3421 13.5625 24.1462 13.7584 24.1462 14C24.1462 14.2416 24.3421 14.4375 24.5837 14.4375Z" fill="#3971B9"/>
<path d="M4.17402 15.7473C4.159 15.6621 4.11904 15.5832 4.05921 15.5207C3.99937 15.4582 3.92234 15.4148 3.83786 15.3961C3.75338 15.3774 3.66525 15.3841 3.5846 15.4155C3.50395 15.4469 3.43441 15.5014 3.38478 15.5723C3.33515 15.6432 3.30765 15.7272 3.30577 15.8137C3.30388 15.9002 3.32769 15.9853 3.37419 16.0583C3.42069 16.1313 3.48778 16.1889 3.56698 16.2237C3.64619 16.2585 3.73395 16.2691 3.81916 16.2541C3.93342 16.2339 4.035 16.1692 4.10155 16.0742C4.16809 15.9791 4.19416 15.8616 4.17402 15.7473Z" fill="#3971B9"/>
<path d="M23.9935 12.2528C24.0085 12.338 24.0485 12.4168 24.1083 12.4793C24.1681 12.5418 24.2452 12.5852 24.3296 12.6039C24.4141 12.6226 24.5023 12.6159 24.5829 12.5845C24.6635 12.5531 24.7331 12.4986 24.7827 12.4277C24.8323 12.3568 24.8598 12.2728 24.8617 12.1863C24.8636 12.0998 24.8398 12.0146 24.7933 11.9417C24.7468 11.8687 24.6797 11.8111 24.6005 11.7763C24.5213 11.7415 24.4335 11.7309 24.3483 11.7459C24.2917 11.7559 24.2377 11.7769 24.1892 11.8078C24.1408 11.8387 24.0989 11.8788 24.0659 11.9258C24.033 11.9729 24.0096 12.026 23.9972 12.0821C23.9847 12.1382 23.9835 12.1962 23.9935 12.2528Z" fill="#3971B9"/>
<path d="M4.62817 17.4415C4.59859 17.3602 4.54555 17.2894 4.47577 17.2383C4.406 17.1871 4.32261 17.1578 4.23616 17.154C4.14971 17.1502 4.06408 17.1721 3.9901 17.217C3.91612 17.2619 3.85712 17.3277 3.82054 17.4061C3.78397 17.4846 3.77147 17.5721 3.78463 17.6576C3.79779 17.7431 3.83602 17.8228 3.89448 17.8866C3.95294 17.9504 4.029 17.9955 4.11305 18.016C4.1971 18.0366 4.28537 18.0318 4.36668 18.0022C4.47571 17.9625 4.5645 17.8811 4.61354 17.776C4.66258 17.6708 4.66784 17.5505 4.62817 17.4415Z" fill="#3971B9"/>
<path d="M23.5393 10.5583C23.5689 10.6396 23.622 10.7103 23.6917 10.7615C23.7615 10.8127 23.8449 10.842 23.9313 10.8458C24.0178 10.8496 24.1034 10.8276 24.1774 10.7827C24.2514 10.7378 24.3104 10.672 24.3469 10.5936C24.3835 10.5152 24.396 10.4277 24.3828 10.3421C24.3697 10.2566 24.3315 10.1769 24.273 10.1131C24.2145 10.0493 24.1385 10.0043 24.0544 9.98373C23.9704 9.96316 23.8821 9.96798 23.8008 9.99757C23.7468 10.0172 23.6972 10.0473 23.6549 10.0861C23.6125 10.1249 23.5782 10.1717 23.5539 10.2238C23.5297 10.2759 23.5159 10.3322 23.5134 10.3896C23.5108 10.447 23.5197 10.5043 23.5393 10.5583Z" fill="#3971B9"/>
<path d="M4.77173 18.8711C4.69679 18.9144 4.63637 18.9789 4.5981 19.0565C4.55983 19.1341 4.54543 19.2213 4.55672 19.3071C4.56802 19.3929 4.6045 19.4734 4.66155 19.5385C4.7186 19.6035 4.79367 19.6502 4.87725 19.6726C4.96083 19.695 5.04918 19.6921 5.13112 19.6643C5.21305 19.6365 5.2849 19.585 5.33758 19.5163C5.39025 19.4477 5.42139 19.3649 5.42704 19.2786C5.4327 19.1923 5.41262 19.1062 5.36936 19.0312C5.31134 18.9308 5.21578 18.8574 5.10371 18.8274C4.99163 18.7974 4.87222 18.8131 4.77173 18.8711Z" fill="#3971B9"/>
<path d="M23.6042 8.86311C23.6668 8.62972 23.5283 8.3898 23.2949 8.32723C23.0615 8.26466 22.8216 8.40313 22.7591 8.63651C22.6965 8.86989 22.8349 9.10981 23.0683 9.17238C23.3017 9.23495 23.5416 9.09649 23.6042 8.86311Z" fill="#3971B9"/>
<path d="M5.75908 20.4141C5.69279 20.4697 5.64448 20.5438 5.62027 20.6268C5.59605 20.7099 5.59701 20.7983 5.62303 20.8808C5.64904 20.9633 5.69895 21.0363 5.76643 21.0905C5.83391 21.1446 5.91594 21.1776 6.00214 21.1851C6.08834 21.1926 6.17484 21.1745 6.25071 21.1328C6.32657 21.0912 6.38839 21.028 6.42835 20.9513C6.4683 20.8745 6.4846 20.7877 6.47518 20.7016C6.46576 20.6156 6.43105 20.5343 6.37543 20.4681C6.30085 20.3792 6.19402 20.3236 6.07843 20.3134C5.96284 20.3033 5.84797 20.3395 5.75908 20.4141Z" fill="#3971B9"/>
<path d="M21.8459 6.91561C21.7797 6.97124 21.7314 7.04527 21.7072 7.12834C21.683 7.21141 21.6839 7.2998 21.71 7.38232C21.736 7.46484 21.7859 7.53779 21.8534 7.59195C21.9209 7.6461 22.0029 7.67903 22.0891 7.68657C22.1753 7.69411 22.2618 7.67591 22.3376 7.63429C22.4135 7.59267 22.4753 7.52949 22.5153 7.45274C22.5552 7.37599 22.5715 7.28911 22.5621 7.2031C22.5527 7.11709 22.518 7.0358 22.4623 6.96951C22.4254 6.9255 22.3802 6.88919 22.3292 6.86266C22.2782 6.83613 22.2225 6.8199 22.1653 6.8149C22.1081 6.80989 22.0504 6.81621 21.9956 6.83349C21.9408 6.85077 21.89 6.87868 21.8459 6.91561Z" fill="#3971B9"/>
<path d="M6.99935 21.7622C6.94372 21.8285 6.909 21.9098 6.89958 21.9958C6.89015 22.0818 6.90644 22.1687 6.9464 22.2455C6.98635 22.3222 7.04816 22.3854 7.12402 22.427C7.19988 22.4686 7.28639 22.4868 7.37259 22.4793C7.45879 22.4718 7.54082 22.4388 7.6083 22.3847C7.67579 22.3305 7.7257 22.2576 7.75172 22.175C7.77774 22.0925 7.77871 22.0041 7.7545 21.921C7.73028 21.838 7.68198 21.7639 7.6157 21.7083C7.52681 21.6337 7.41195 21.5975 7.29636 21.6076C7.18077 21.6177 7.07393 21.6733 6.99935 21.7622Z" fill="#3971B9"/>
<path d="M21.1682 6.23776C21.2238 6.17147 21.2585 6.09018 21.2679 6.00416C21.2773 5.91815 21.261 5.83127 21.2211 5.75452C21.1811 5.67777 21.1193 5.61459 21.0434 5.57297C20.9676 5.53135 20.8811 5.51316 20.7949 5.52071C20.7087 5.52825 20.6266 5.56119 20.5592 5.61535C20.4917 5.66952 20.4418 5.74248 20.4158 5.825C20.3897 5.90753 20.3888 5.99592 20.413 6.07899C20.4372 6.16206 20.4855 6.23609 20.5518 6.2917C20.6407 6.36628 20.7556 6.40249 20.8712 6.39238C20.9867 6.38226 21.0936 6.32664 21.1682 6.23776Z" fill="#3971B9"/>
<path d="M9.0525 22.7144C8.97757 22.6711 8.89148 22.651 8.80514 22.6567C8.71879 22.6624 8.63607 22.6935 8.56742 22.7462C8.49877 22.7988 8.44728 22.8707 8.41946 22.9526C8.39165 23.0346 8.38875 23.1229 8.41115 23.2065C8.43354 23.2901 8.48022 23.3651 8.54527 23.4222C8.61033 23.4792 8.69084 23.5157 8.77663 23.527C8.86242 23.5383 8.94964 23.5239 9.02724 23.4856C9.10485 23.4474 9.16936 23.3869 9.21263 23.312C9.27064 23.2115 9.28636 23.0921 9.25633 22.98C9.22631 22.868 9.15299 22.7724 9.0525 22.7144Z" fill="#3971B9"/>
<path d="M19.449 5.32584C19.6824 5.26327 19.8208 5.02335 19.7583 4.78997C19.6957 4.55659 19.4558 4.41812 19.2224 4.4807C18.989 4.54327 18.8505 4.78319 18.9131 5.01657C18.9757 5.24995 19.2156 5.38842 19.449 5.32584Z" fill="#3971B9"/>
<path d="M10.642 23.4556C10.5607 23.426 10.4725 23.4212 10.3884 23.4417C10.3044 23.4623 10.2283 23.5073 10.1699 23.5711C10.1114 23.6349 10.0732 23.7146 10.06 23.8001C10.0469 23.8857 10.0594 23.9732 10.0959 24.0516C10.1325 24.13 10.1915 24.1958 10.2655 24.2407C10.3394 24.2856 10.4251 24.3076 10.5115 24.3038C10.5979 24.3 10.6813 24.2707 10.7511 24.2195C10.8209 24.1684 10.8739 24.0977 10.9035 24.0164C10.9232 23.9624 10.932 23.905 10.9295 23.8476C10.927 23.7902 10.9132 23.7339 10.8889 23.6818C10.8647 23.6297 10.8304 23.583 10.788 23.5441C10.7456 23.5053 10.696 23.4752 10.642 23.4556Z" fill="#3971B9"/>
<path d="M17.5254 4.54442C17.6067 4.57401 17.695 4.57883 17.7791 4.55826C17.8631 4.53769 17.9392 4.49266 17.9976 4.42886C18.0561 4.36507 18.0943 4.28537 18.1075 4.19985C18.1206 4.11433 18.1081 4.02683 18.0716 3.94841C18.035 3.86999 17.976 3.80417 17.902 3.75928C17.828 3.71439 17.7424 3.69245 17.656 3.69622C17.5695 3.69999 17.4862 3.72931 17.4164 3.78047C17.3466 3.83163 17.2935 3.90233 17.2639 3.98364C17.2443 4.03763 17.2355 4.09496 17.238 4.15237C17.2405 4.20977 17.2543 4.26612 17.2785 4.31819C17.3028 4.37027 17.3371 4.41705 17.3795 4.45587C17.4218 4.49468 17.4714 4.52478 17.5254 4.54442Z" fill="#3971B9"/>
<path d="M12.3365 23.9097C12.2512 23.8947 12.1635 23.9053 12.0843 23.9401C12.0051 23.975 11.938 24.0325 11.8915 24.1055C11.845 24.1785 11.8212 24.2636 11.8231 24.3501C11.825 24.4366 11.8525 24.5207 11.9021 24.5915C11.9518 24.6624 12.0213 24.717 12.102 24.7483C12.1826 24.7797 12.2707 24.7864 12.3552 24.7677C12.4397 24.749 12.5167 24.7056 12.5766 24.6431C12.6364 24.5806 12.6763 24.5017 12.6914 24.4165C12.7115 24.3023 12.6854 24.1847 12.6189 24.0896C12.5523 23.9946 12.4507 23.9299 12.3365 23.9097Z" fill="#3971B9"/>
<path d="M15.831 4.09028C15.9162 4.1053 16.004 4.09472 16.0832 4.05987C16.1624 4.02501 16.2295 3.96746 16.276 3.89448C16.3225 3.8215 16.3463 3.73637 16.3444 3.64986C16.3425 3.56335 16.315 3.47935 16.2654 3.40847C16.2157 3.33759 16.1462 3.28302 16.0655 3.25166C15.9849 3.2203 15.8967 3.21357 15.8123 3.2323C15.7278 3.25103 15.6508 3.2944 15.5909 3.35691C15.5311 3.41941 15.4911 3.49826 15.4761 3.58348C15.456 3.69775 15.4821 3.81534 15.5486 3.91038C15.6152 4.00542 15.7168 4.07013 15.831 4.09028Z" fill="#3971B9"/>
</svg>
